<?xml version="1.0" encoding="utf-8"?>
<!-- Generator: Adobe Illustrator 21.0.0, SVG Export Plug-In . SVG Version: 6.00 Build 0)  -->
<svg version="1.1" id="Layer_1" xmlns="http://www.w3.org/2000/svg" xmlns:xlink="http://www.w3.org/1999/xlink" x="0px" y="0px"
	 viewBox="0 0 1080 1080" style="enable-background:new 0 0 1080 1080;" xml:space="preserve">
<style type="text/css">
	.st0{fill:#FFFFFF;}
</style>
<g>
	<path d="M15.3,629.7c1.1-4.9,2.5-9.8,5.5-14c6.7-9.3,16-13.2,27.3-13.1c52.6,0.1,105.1,0,157.7,0c1.2,0,2.4,0,3.8,0
		c0-16.8,0-33.5,0-50.5c-1.2,0-2.2,0-3.3,0c-35.5,0-70.9,0-106.4,0c-14.7,0-26.7-9.3-30.1-23.6c-0.5-2.1-0.8-4.4-0.8-6.6
		c0-84.8,0-169.6,0-254.3c0-16.3,13.8-30.1,30-30.1c115.9,0,231.7,0,347.6,0c16.2,0,30,13.8,30,30.1c0,30,0,60,0,89.9
		c0,0.9,0,1.9,0,3.2c0.8-0.6,1.3-1,1.7-1.4c16.9-17,33.8-34,50.8-50.9c11.6-11.5,25.7-17.8,42.2-17.9c17.2-0.1,34.4,0,51.5,0
		c4.8,0,8.6,3,9.2,7.6c1.7,11.8,9,18.5,19.6,22.2c13.2,4.6,28.7,0.2,36.5-10.2c2.7-3.5,4.2-7.4,4.8-11.7c0.7-4.8,4.3-7.9,9.2-7.9
		c17.8,0,35.6-0.3,53.3,0.1c16.8,0.4,30.9,7.5,42.4,19.9c2.1,2.3,4.2,4.5,6.4,6.7c56.1,56.1,112.2,112.2,168.4,168.4
		c21.7,21.7,22,52.9,0.4,75.1c7.1,4.5,12,10.7,13.7,19c1.7,8.2-0.1,15.8-5.2,23.1c1.3,0,2.2,0,3.1,0c16.6,0,33.2,0,49.7,0
		c14.7,0,27.1,10.4,29.8,24.9c0.1,0.7,0.3,1.3,0.5,2c0,10.8,0,21.6,0,32.5c-0.2,0.8-0.4,1.6-0.5,2.5c-2.6,14.3-15.2,24.8-29.6,24.8
		c-6.4,0-12.9,0-19.3,0c-0.8,0-1.6,0.1-2.6,0.1c0,1.4,0,2.5,0,3.6c0,121.9,0,243.8,0.1,365.7c0,5.7-1.9,9.6-7.3,11.5
		c-308.1,0-616.1,0-924.2,0c-5.4-2-7.3-5.9-7.3-11.6c0.1-122,0.1-243.9,0.1-365.9c0-1.1,0-2.2,0-3.4c-9.8,0-19.4,0.1-28.9,0
		c-9.3-0.1-16.9-4-22.9-11c-4-4.7-5.9-10.3-7-16.3C15.3,651.3,15.3,640.5,15.3,629.7z M92.7,803.6c1.4,0,2.5,0,3.6,0
		c31.6,0,63.2,0,94.8,0c1.8,0,3.8,0.2,5.5,1c3.8,1.7,5.7,6.2,4.7,10.4c-0.9,4-4.6,6.8-8.9,6.9c-32.2,0-64.4,0-96.6,0c-1,0-2,0-3.1,0
		c0,76.8,0,153.2,0,229.8c300.5,0,600.8,0,901.3,0c0-16.8,0-33.5,0-50.5c-1.2,0-2.3,0-3.4,0c-78.9,0-157.9,0-236.8,0
		c-0.9,0-1.9,0-2.8,0c-4.1-0.3-7.7-3.6-8.3-7.6c-0.7-4.4,1.6-8.7,5.7-10.1c1.7-0.6,3.5-0.7,5.3-0.7c79,0,158.1,0,237.1,0
		c1.1,0,2.2,0,3.3,0c0-98,0-195.6,0-293.3c-25.5,0-50.8,0-76.4,0c0,1.3,0,2.5,0,3.6c0,62.8,0,125.6,0,188.4c0,1.1,0,2.2-0.1,3.3
		c-0.4,4.1-3.6,7.3-7.7,7.8c-6,0.8-10.5-3.3-10.5-9.7c0-63.4,0-126.8,0-190.2c0-1.1,0-2.1,0-3.1c-269.1,0-537.9,0-806.6,0
		c0,10.8,0,21.4,0,32.3c1.2,0,2.3,0,3.4,0c67.9,0,135.7,0,203.6,0c1.1,0,2.2-0.1,3.3,0.1c3.5,0.4,6.2,2,7.7,5.2
		c1.6,3.3,1.2,6.5-1,9.5c-2.1,2.9-5.1,3.7-8.6,3.7c-68.4,0-136.8,0-205.1,0c-1.1,0-2.2,0-3.4,0C92.7,761.6,92.7,782.4,92.7,803.6z
		 M87.2,503.5c0,4.8-0.1,9.2,0,13.7c0,2.5-0.1,5,0.5,7.4c1.4,6,6.4,9.3,13.7,9.3c107.5,0,214.9,0,322.4,0c7.2,0,14.4,0,21.6,0
		c7.6-0.1,12.7-5.3,12.7-12.9c0-68.8,0-137.6,0-206.4c0-0.9,0-1.8,0-2.9c-1.4,0-2.4,0-3.4,0c-63.2,0-126.4,0-189.7,0
		c-0.8,0-1.5,0-2.3,0c-5.6-0.2-9.6-4.7-8.9-10.3c0.6-5.1,4.5-8.1,10.7-8.1c63.4,0,126.8,0,190.2,0c1.1,0,2.2,0,3.4,0
		c0-9.2,0-18.1,0-27.1c0-0.5-0.2-1-0.4-1.5c-1.7-5.6-6.2-8.7-12.5-8.7c-104.4,0-208.7,0-313.1,0c-10.9,0-21.8-0.2-32.7,0.1
		c-2.5,0.1-5.4,1.2-7.5,2.7c-3.9,2.6-4.7,6.9-4.7,11.4c0,48.4,0,96.7,0,145.1c0,0.8,0,1.7,0,2.7c9.4,0,18.4,0,27.4,0
		c5.9,0,9.9,3.7,10,9.1c0,5.6-3.9,9.2-10.1,9.2c-8.2,0-16.3,0-24.5,0c-0.9,0-1.8,0.1-2.6,0.1c0,16.4,0,32.5,0,48.8
		c1.3,0,2.4,0,3.5,0c51.4,0,102.7,0,154.1,0c1,0,2.1,0,3.1,0.1c4.4,0.5,7.6,3.7,8,8c0.5,4.5-1.9,8.4-6.3,9.7
		c-1.6,0.5-3.4,0.5-5.1,0.5c-51.3,0-102.6,0-153.8,0C89.9,503.5,88.8,503.5,87.2,503.5z M529.9,560.2c1.5,0,2.6,0,3.7,0
		c56.9,0,113.7,0,170.6,0c10.3,0,18.3,4.6,23.2,13.6c4.9,8.9,4.5,17.9-0.7,26.7c-0.4,0.7-0.8,1.4-1.3,2.2c23.4,0,46.4,0,69.7,0
		c0-1.1,0-2,0-2.9c0-83.2,0-166.3,0-249.5c0-1.1,0-2.2-0.1-3.3c-2.7-22.2-20.3-38-42.6-38.1c-13.5-0.1-27,0-40.5-0.1
		c-1.9,0-2.7,0.7-3.3,2.4c-2.2,6.2-5.9,11.5-10.7,15.8c-13.6,12.2-29.6,16.1-47.1,12.3c-16.2-3.5-28.3-12.8-34.5-28.6
		c-0.7-1.7-1.6-1.8-3.1-1.8c-13.5,0-27-0.1-40.5,0.1c-4,0.1-8.1,0.6-11.9,1.6c-18.8,5.2-30.9,21.7-30.9,42.1c0,68.2,0,136.4,0,204.6
		C529.9,558.1,529.9,559,529.9,560.2z M540.1,621c-163.9,0-327.8,0-491.7,0c-0.9,0-1.7,0-2.6,0c-7,0.3-12,5.4-12.1,12.4
		c0,8.5-0.1,17,0,25.5c0,1.8,0.4,3.8,1.2,5.4c2.6,5.4,7.3,6.9,13,6.9c328,0,655.9,0,983.9,0c1,0,2.1,0,3.1-0.1
		c6.7-0.7,11.2-5.6,11.2-12.4c0-8.4,0-16.8,0-25.3c0-1.2-0.1-2.4-0.5-3.5c-1.7-5.8-6.3-8.9-13.2-8.9C868.4,621,704.3,621,540.1,621z
		 M821.7,454.4c1.4,1.4,2.9,2.7,4.3,4.1c16.4,16.3,32.7,32.6,49.1,48.9c13.1,13,26.1,26.1,39.3,39.1c7.9,7.8,17.5,11.1,28.4,9.3
		c13.2-2.2,22.4-10,26.3-22.8c3.9-12.6,0.9-24-8.4-33.3c-30.1-30.2-60.2-60.2-90.3-90.4c-0.6-0.6-1.3-1.2-1.8-1.7
		C852.9,423.2,837.4,438.7,821.7,454.4z M511.5,560.2c0-29.7,0-59,0-88.5c-0.4,0.2-0.6,0.3-0.8,0.5c-10.9,10.9-21.9,21.8-32.8,32.8
		c-0.8,0.8-1.2,2.2-1.3,3.4c-0.2,4-0.1,8.1-0.1,12.1c0,18.4-13.2,31.6-31.6,31.6c-35.3,0-70.6,0-105.9,0c-1.1,0-2.2,0-3.2,0
		c0,17.1,0,33.8,0,50.5c33.6,0,67,0,100.7,0c-3-4.4-5-9-5.3-14.1c-0.8-16.2,10.9-28.4,27-28.4c16.7,0,33.3,0,50,0
		C509.3,560.2,510.3,560.2,511.5,560.2z M884.4,602.7c-11.1-15.6-5.2-38.5,13.9-44.5c-27.8-28.2-56-56.8-84.5-85.8
		c0,43.7,0,87,0,130.3C837.3,602.7,860.7,602.7,884.4,602.7z M317.2,602.7c0-17,0-33.6,0-50.3c-29.7,0-59.2,0-88.7,0
		c0,16.9,0,33.6,0,50.3C258.1,602.7,287.5,602.7,317.2,602.7z M581.1,578.6c-40.5,0-80.9,0-121.4,0c-0.9,0-1.9,0-2.8,0
		c-3.6,0.2-6.5,2.8-7.2,6.3c-1.1,5.5,2.8,9.6,9.1,9.6c81.4,0,162.9,0,244.3,0c0.5,0,1,0,1.5,0c5.4-0.4,8.9-5.3,7.4-10.4
		c-1.1-3.6-4.2-5.6-8.8-5.6C662.5,578.6,621.8,578.6,581.1,578.6z M813.8,353.3c0,27.3,0,54.7,0,82c13.7-13.8,27.4-27.5,41-41
		C841.2,380.8,827.5,367.1,813.8,353.3z M511.6,352.2c-9.5,9.5-18.3,19-27.8,27.6c-5.6,5.1-8.5,10.4-7.1,17.8
		c0.2,1.2,0.6,2.5,1.3,3.4c9.7,10.9,19.4,21.8,29.2,32.6c1.4,1.5,2.8,3,4.5,4.8C511.6,409.5,511.6,381.1,511.6,352.2z M933.2,595.7
		C933.2,595.7,933.2,595.7,933.2,595.7c8.3,0,16.6,0.1,25,0c6.2,0,10.6-4.2,10.7-9.8c0.1-6.1-4-10.5-10.4-10.5
		c-16.9-0.1-33.8-0.1-50.7,0c-3.9,0-7,1.6-9.1,4.9c-4.2,6.7,0.6,15.2,8.7,15.4C916,595.8,924.6,595.7,933.2,595.7z M476.8,427.4
		c0,17.9,0,35.1,0,52.2c8.2-8.2,16.4-16.3,24.7-24.7C493.5,446,485.3,436.9,476.8,427.4z"/>
	<path d="M668.3,9.6c6.8,0.9,13.6,1.4,20.4,2.6c55.6,10,99.3,49.6,112,105.7c4.1,18.2,5,36.6,2.4,55c-3.9,28-18.6,48.9-43.1,62.9
		c-1.6,0.9-3,2.3-4.1,3.7c-19.5,26.2-45.3,42.7-77.8,46.7c-45.5,5.6-82.1-10.9-109.7-47.4c-0.8-1-1.9-2-3-2.6
		c-15.6-8.9-28.2-20.7-36.1-37c-6.2-12.8-8.7-26.4-9-40.6c-0.4-20.5,1.5-40.6,8.3-60.1c7.8-22.3,20.7-40.7,41.2-53.2
		c6.9-4.2,14.3-7.3,22.1-9.5c1.3-0.4,2.6-1,3.5-1.9c14.7-13.4,32-20.8,51.6-23.4c2.6-0.4,5.3-0.7,7.9-1
		C659.4,9.6,663.9,9.6,668.3,9.6z M614,93.4c-3.6,6.4-6.9,12.9-10.9,19c-9.1,14.1-20.2,26-36,32.7c-0.6,0.3-1.3,1.3-1.3,2
		c0.1,11.2-0.3,22.5,0.5,33.7c1.6,22.5,10.5,42,26.2,58.1c24.4,25,54.3,34.9,88.6,28.2c31.5-6.1,54.2-24.4,68.6-53
		c6.5-13,9.4-26.9,9.6-41.5c0-4,0-8,0-11.9C701.3,158.2,654,133.6,614,93.4z M775.1,197.6c0.6-0.9,1-1.3,1.3-1.8
		c3.9-6.6,6.6-13.7,8-21.3c2.6-14.7,2.3-29.4,0-44c-3.8-24.7-14-46.5-31.5-64.3c-29.2-29.5-64.9-41.7-106-36.9
		c-15.7,1.8-29.5,8.7-40.7,20.2c-1.9,2-4.1,3.2-6.8,3.8c-10.9,2.1-20.3,7.1-28.7,14.2c-13.6,11.4-21.7,26.3-26.5,43.2
		c-4.8,16.7-5.9,33.7-5.1,50.9c0.4,8.8,1.9,17.4,5.2,25.6c1.6,3.8,3.6,7.4,5.4,11.1c-0.5-6.5-1.6-12.6-1.8-18.8
		c-0.4-9.6-0.2-19.2-0.3-28.8c0-1.5-0.3-2.5-1.7-3.3c-3.3-2-4.6-5.8-3.8-9.6c0.9-3.8,3.6-6.5,7.6-7c9.1-1.1,16.8-5.1,23.6-11.1
		c6.8-6,12.5-13.1,16.7-21.1c4.4-8.3,8.3-16.9,11.9-25.6c3-7.3,11-9.1,16.2-3.2c1,1.1,1.9,2.3,2.8,3.3c19.3,21.8,42,39.1,68.3,51.7
		c26.8,12.8,54.9,19,84.7,17.5c4.1-0.2,7.8,2.2,9.2,6.1c1.4,3.9,0.2,8.3-3.5,10.6c-1.6,1-1.9,2-1.9,3.7c-0.1,7-0.1,14.1-0.5,21.1
		C776.7,188.2,775.8,192.7,775.1,197.6z"/>
	<path class="st0" d="M15.3,662.2c1.1,6,3,11.6,7,16.3c6,7,13.6,10.9,22.9,11c9.5,0.1,19,0,28.9,0c0,1.3,0,2.4,0,3.4
		c0,122,0,243.9-0.1,365.9c0,5.7,1.8,9.6,7.3,11.6c-22,0-44,0-66,0C15.3,934.3,15.3,798.2,15.3,662.2z"/>
	<path class="st0" d="M1005.4,1070.4c5.4-2,7.3-5.9,7.3-11.5c-0.1-121.9-0.1-243.8-0.1-365.7c0-1.1,0-2.2,0-3.6
		c0.9,0,1.8-0.1,2.6-0.1c6.4,0,12.9,0,19.3,0c14.4,0,27-10.6,29.6-24.8c0.2-0.8,0.4-1.6,0.5-2.5c0,136.1,0,272.1,0,408.2
		C1044.9,1070.4,1025.2,1070.4,1005.4,1070.4z"/>
	<path class="st0" d="M511.5,560.2c-1.2,0-2.2,0-3.2,0c-16.7,0-33.3,0-50,0c-16.2,0-27.8,12.2-27,28.4c0.2,5.1,2.2,9.6,5.3,14.1
		c-33.7,0-67.1,0-100.7,0c0-16.7,0-33.4,0-50.5c1.1,0,2.2,0,3.2,0c35.3,0,70.6,0,105.9,0c18.4,0,31.6-13.2,31.6-31.6
		c0-4-0.1-8.1,0.1-12.1c0-1.2,0.5-2.6,1.3-3.4c10.9-11,21.8-21.9,32.8-32.8c0.2-0.2,0.4-0.3,0.8-0.5
		C511.5,501.2,511.5,530.5,511.5,560.2z"/>
	<path class="st0" d="M884.4,602.7c-23.7,0-47.1,0-70.7,0c0-43.3,0-86.6,0-130.3c28.5,28.9,56.7,57.6,84.5,85.8
		C879.2,564.2,873.4,587.1,884.4,602.7z"/>
	<path d="M236.7,394.6c0.4-20.1,16.5-36.1,36.2-35.9c20,0.2,36.4,16.8,35.9,36.4c-0.5,20.5-16.6,36.1-36.8,35.7
		C252.3,430.4,236.4,414,236.7,394.6z M272.7,377.1c-9.6,0-17.8,8.2-17.7,17.8c0.1,9.6,8,17.5,17.6,17.5c9.6,0.1,17.8-8,17.8-17.6
		C290.5,385.2,282.3,377.1,272.7,377.1z"/>
	<path d="M729.4,378.2c9.9,0,19.7,0,29.6,0c6.7,0,10.3,3.7,10.3,10.4c0,12.7,0,25.4,0,38.1c0,3.9-1.4,6.9-4.7,9.1
		c-9.6,6.6-19.2,13.3-28.7,19.9c-5,3.5-8.4,3.5-13.4,0c-9.5-6.6-19-13.3-28.5-19.8c-3.4-2.4-5-5.5-4.9-9.6c0-12.5,0-25.1,0-37.6
		c0-6.9,3.8-10.6,10.7-10.6C709.6,378.2,719.5,378.2,729.4,378.2z M750.9,396.8c-14.6,0-28.9,0-43.4,0c0,8.5,0,16.8,0,25.1
		c0,0.6,0.5,1.3,1,1.6c6.9,4.8,13.8,9.6,20.7,14.4c6.9-4.8,13.8-9.5,20.6-14.3c0.6-0.4,1.1-1.4,1.1-2.1
		C750.9,413.4,750.9,405.2,750.9,396.8z"/>
	<path d="M737.9,356c7.1,0,14.3,0,21.4,0c5.8,0,9.9,3.8,10,9.1c0,5.3-4.1,9.3-9.8,9.3c-14.5,0-29,0-43.5,0c-6,0-10-3.9-10-9.4
		c0.1-5.3,4.1-9,10-9C723.3,356,730.6,356,737.9,356z"/>
	<path d="M660.1,196.7c8.3-0.5,16.5,0.3,24,4.4c14.3,7.8,21.4,20,21.9,36.2c0.1,3.6,0.1,7.2,0,10.8c-0.2,5.7-4.3,10-9.4,9.9
		c-5.4-0.1-9-4.2-9.1-10.1c0-3,0.2-6,0-9c-0.2-3.2-0.3-6.6-1.4-9.6c-3.2-8.5-9.6-13.5-18.8-14.1c-5.7-0.3-11.6-0.6-17.2,0.3
		c-10.7,1.8-17.5,10.8-17.6,22.4c0,3.8,0,7.6,0,11.3c-0.1,4.6-3.9,8.3-8.6,8.6c-4.3,0.3-9.3-3.2-9.3-7.5c-0.1-7.8-0.4-15.8,1.1-23.3
		c3.6-17.8,20.2-30.4,38.4-30.4C655.9,196.7,658,196.7,660.1,196.7z"/>
	<path d="M659.7,250.4c-3.5,0-7,0.1-10.6,0c-5-0.1-8.9-3.8-9.1-8.6c-0.2-5.2,3.3-9.5,8.6-9.6c7.5-0.2,15.1-0.2,22.6,0
		c5.5,0.2,8.7,4.2,8.5,9.8c-0.2,4.8-4,8.3-9.2,8.4C666.9,250.4,663.3,250.4,659.7,250.4z"/>
</g>
</svg>
