<?xml version="1.0" encoding="utf-8"?>
<!-- Generator: Adobe Illustrator 21.0.0, SVG Export Plug-In . SVG Version: 6.00 Build 0)  -->
<svg version="1.1" id="Layer_1" xmlns="http://www.w3.org/2000/svg" xmlns:xlink="http://www.w3.org/1999/xlink" x="0px" y="0px"
	 viewBox="0 0 220 220" style="enable-background:new 0 0 220 220;" xml:space="preserve">
<style type="text/css">
	.st0{fill:#FFFFFF;}
</style>
<g>
	<g>
		<path class="st0" d="M116.1,116.4c-4.3,0-8.6,0-12.9,0c0-4.4,0-8.9,0-13.3c4.3,0,8.6,0,12.9,0
			C116.1,107.5,116.1,111.9,116.1,116.4z"/>
	</g>
</g>
<path class="st0" d="M110,0c60.7,0,110,49.3,110,110c0,60.7-49.3,110-110,110C49.3,220,0,170.7,0,110C0,49.3,49.3,0,110,0z
	 M110,17.2c-51.3,0-92.8,41.5-92.8,92.8c0,51.3,41.5,92.8,92.8,92.8c51.3,0,92.8-41.5,92.8-92.8C202.8,58.7,161.3,17.2,110,17.2z"/>
<path class="st0" d="M98,112.6c-4.7,0-9.3,0-13.9,0c0-6.5,0-12.8,0-19.4c4.5,0,9.1,0,13.8,0c0.1-0.8,0.1-1.4,0.1-2.1
	c0-4.2,0-8.4,0-12.6c0-4.6,0.9-9.1,3.1-13.2c3.1-5.5,7.9-8.9,14-9.7c6.8-0.8,13.6-0.7,20.6-1c0,6.6,0,12.8,0,19.1
	c-2.4,0-4.7,0-7.1,0c-1.9,0-3.7-0.1-5.6,0.1c-4.3,0.3-6.1,2.3-6.1,6.6c0,4.1,0,8.3,0,12.6c6.4,0,12.7,0,19.2,0
	c-1,6.6-1.9,12.9-2.9,19.4c-5.4,0-10.7,0-16.2,0c0,17.5,0,34.9,0,52.3c-6.4,0-12.6,0-19,0C98,147.4,98,130.1,98,112.6z"/>
</svg>
