<?xml version="1.0" encoding="utf-8"?>
<!-- Generator: Adobe Illustrator 21.0.0, SVG Export Plug-In . SVG Version: 6.00 Build 0)  -->
<svg version="1.1" id="Layer_1" xmlns="http://www.w3.org/2000/svg" xmlns:xlink="http://www.w3.org/1999/xlink" x="0px" y="0px"
	 viewBox="0 0 1080 1080" style="enable-background:new 0 0 1080 1080;" xml:space="preserve">
<path d="M904.5,971.7c-34.2,0-47.5-3.9-54.5-16c-8-13.8-8.9-39.2-9.8-86.6c-0.7-34.2-17.7-36.9-39.9-36.9l-1.7,0l-32.4,0.2
	c-72.5,0.4-147.4,0.8-221.1,0.8c-86.8,0-159.4-0.5-228.5-1.7c-0.8,0-1.5,0-2.2,0c-16.3,0-26.8,3.2-33.1,10.1
	c-7.4,8.2-7.9,20-6.2,36.4c1.6,15.7,1.5,29.3,0,41.6c-4.6,36.4-20.3,50.6-56.1,51c-6.5,0.1-13,0.2-19.4,0.3
	c-10,0.2-20.4,0.3-30.7,0.3c-13.7,0-25-0.3-35.6-0.9c-23-1.3-35.1-13.6-35.8-36.4c0-1.4-0.1-2.8-0.2-4.3c-0.2-4-0.4-8.2,0.2-11.7
	c10.7-59.9-11.8-104-69.1-134.7V462.7c11-6.3,19.2-15.4,27-24.2c7.5-8.4,15.3-17.1,25.3-22.8c19.9-11.3,27.8-33.2,36.2-56.3l0.3-0.8
	c6.8-18.9,11-38.4,15.1-57.3c4.2-19.4,8.5-39.5,15.7-58.4c7.4-19.4,13-39.8,18.4-59.6c13-47.3,26.4-96.2,65.4-132.2h633.8
	c32.3,29.4,55.1,70.9,66,120.1c3.8,17.4,9.8,34.4,15.6,50.8c3.8,10.9,7.8,22.1,11,33.2c8.3,28.6,17.8,60.9,24.2,92.7
	c6.1,30.1,17.7,71.1,47.7,79.2c39.7,10.7,39.4,34.1,39,63.8l0,0.2c0,2.6-0.1,5.1-0.1,7.7c-0.1,27.3,0,55.1,0,81.9l0,1.3
	c0.1,60.1,0.2,122.3-0.8,183.6c-0.3,16.3-6.2,35.9-11.6,38.1c-40.1,16.3-40.3,47-40.5,76.7c-0.2,21.8-6.3,46.2-16.9,67
	c-3.9,7.6-15.2,13-26.3,18.2c-3.7,1.8-7.5,3.6-11,5.4c-0.4,0.2-1.1,0.4-2.7,0.4c-1.4,0-3-0.2-4.7-0.3c-1.9-0.2-4-0.4-6-0.4
	c-0.3,0-0.6,0-0.9,0C930.9,971.2,916.5,971.7,904.5,971.7L904.5,971.7z M403.1,90.6c-44.1,0-80.2,0.1-113.7,0.3
	c-51.8,0.3-79,27.3-83.3,82.5c-0.1,1.8-0.3,3.7-0.4,5.6l0,0.2c-0.8,11.4-1.6,23.1-5.2,33.2c-6.7,19-14.4,38.2-21.8,56.8
	c-15,37.6-30.6,76.5-39,116.4c-7,33-22,54-47.2,66.2c-16.7,8.1-24.6,14-24.5,33.6c0.2,38.7,0.2,78,0.3,116v0.2
	c0,52.2,0,106.2,0.6,159.3c0.1,10.1,7.5,27.4,17.4,30.7c25.7,8.4,40.8,22.3,47.6,43.8c6,18.8,5.1,40.6,3.2,67.1
	c-1.1,16.3-1.4,29.4,6.7,38.1c5.6,6,14.4,8.9,27,8.9c2.5,0,5.1-0.1,7.9-0.3c3.2-0.3,6.3-0.5,9.1-0.7l0.4,0
	c44.5-3.2,46.8-5.8,47.3-54.7c0.1-7.5,0-15.2-0.1-22.6c-0.2-12.3-0.3-25.1,0.3-37.4c1.5-28,13.8-40.6,39.8-40.7
	c99.8-0.4,191.9-0.6,281.5-0.6c89.8,0,177.6,0.2,260.9,0.6c17.2,0.1,28.4,3.6,35.2,11.1c8.6,9.4,11.3,25.9,9,53.5
	c-1.1,12.3-0.6,24.6-0.1,35.2c2,39.7,18.1,55.1,57.7,55.2c39.2,0,55.4-15.5,57.6-55.2c0.3-5.3,0.2-10.6,0.1-15.8l0-0.1
	c0-3.3-0.1-6.8,0-10.1c0.1-4.9,0-9.8-0.1-14.6c-0.6-30.2-1-56.3,40.9-63.9c18.9-3.4,29.7-24.1,28.9-55.3
	c-2-81.6-1.9-154.7,0.1-223.5c0.9-28.7-13.4-52.9-31.9-54c-34-2-42.2-27.7-49.5-50.5c-0.9-2.9-1.8-5.6-2.7-8.1
	c-26.3-75.4-46.5-154.6-65.9-231.1c-1.9-7.6-3.9-15.2-5.8-22.8c-10.6-41.4-18.7-51.8-59.5-52.2c-33.1-0.3-69-0.4-112.9-0.4
	c-25.4,0-50.7,0-76.1,0.1l-1,0c-25.7,0-51.3,0.1-77,0.1c-26.6,0-53.2,0-79.8-0.1l-1.2,0C457.1,90.6,430.1,90.6,403.1,90.6z"/>
<path d="M630.8,729.5c-12.9,0-25.9-0.1-38.5-0.2l-0.2,0c-12.6-0.1-25.6-0.2-38.4-0.2c-13.6,0-27.2,0-40.8-0.1l-1.3,0
	c-13.2,0-26.3-0.1-39.5-0.1c-21.6,0-39.2,0.1-55.7,0.2c-0.4,0-0.7,0-1.1,0c-27.2,0-46.8-10.4-60-31.9c-14.9-24.3-16.8-52.1-5.2-74.3
	c11.3-21.6,33.5-35,60.9-36.6c17.5-1,36.3-1.5,59.1-1.5c15.8,0,31.9,0.2,47.4,0.5c15.6,0.2,31.7,0.5,47.6,0.5
	c12.1,0,24.2,0,36.3-0.1c12.2,0,24.3-0.1,36.4-0.1c18.3,0,33.3,0.1,47.4,0.2c15.3,0.2,33.2,5.6,48,14.5c14.4,8.7,23.6,19.6,24.4,29
	c0.2,2.3,0.4,4.7,0.7,7.1c3,31.1,5.8,60.4-25.1,77.9c-10.6,6-26.6,13.3-42.3,14C673.3,729.2,654.3,729.5,630.8,729.5z M409.1,625
	c-10.9,0-18.4,2.4-23.4,7.5c-6.9,7-7.6,17.8-7.4,28.4c0.5,25.3,15.2,28.8,30.9,28.8l0.9,0c38.2-0.3,76.4-0.3,115.6-0.3h20
	c44.1,0,87.2,0,129.8-0.4c13-0.1,28-4.1,41.1-10.8c10.2-5.3,16.1-12.8,16.1-20.8c0-5.3-2.5-12.9-14.7-19.2c-9.9-5.2-25-11.4-40.4-12
	c-15.4-0.6-32.3-0.8-53-0.8c-11.4,0-23.2,0.1-33.5,0.1l-0.3,0c-10.9,0.1-22.1,0.1-33.2,0.1c-14,0-28.3,0.1-42.1,0.2l-0.5,0
	c-13.9,0.1-28.2,0.2-42.4,0.2c-23.4,0-42.6-0.3-60.3-1C411.2,625,410.1,625,409.1,625z"/>
<path d="M221.5,660.3c-1.4,0-2.7-0.1-4.1-0.2c-21.6-1.6-43.5-12.9-60.1-30.9c-16.6-18-25.9-40.5-25.4-61.7
	c0.4-21.4,10.7-43.1,28.1-59.4c17.5-16.4,40.4-25.8,62.8-25.8c0.6,0,1.1,0,1.7,0c20.9,0.4,44.8,12.6,62.6,31.9
	c15.3,16.6,23.6,35.5,22.6,51.9c-1.3,22.9-12.2,46.7-29.9,65.3C262.5,649.8,241.2,660.3,221.5,660.3z M215.7,522.1
	c-18.3,0-33.6,8-42.1,21.9c-8.3,13.7-8.4,31-0.4,46.3c6.2,11.8,19.6,31.6,40.1,31.6c4.6,0,9.4-1,14.1-3.1
	c16.1-7,32.1-21.8,40.8-37.7c10.8-19.7-1.8-40.1-19.8-50c-9.5-5.2-20.5-7-27-8.1c-1.5-0.3-3.1-0.5-3.9-0.7l-0.7-0.2L215.7,522.1z"/>
<path d="M883.2,659c-21.6,0-56.6-28-76.7-53.9c-13.3-17.2-19.9-32.9-17.5-41.9c4.1-15.7,15.1-30.6,25.8-45
	c5.2-7,10.6-14.3,15.3-21.8c7.4-11.8,16.9-14.2,28.9-14.2c2.8,0,5.7,0.1,8.4,0.3c2.9,0.1,5.6,0.3,8.3,0.3c2.8,0,5.2-0.1,7.4-0.4
	c31.4,0.2,51,5.9,63.5,18.5c12,12.1,18.2,31.4,20.1,62.7c1.8,30.8-11.4,56.6-21.4,73.4C937.3,650,907.8,657,885,659
	C884.4,659,883.8,659,883.2,659z M885.1,522.1c-29.5,0-56.5,17.8-57.7,38c-1,15.4,14.5,33.7,19.2,38.9c12,13.2,24.4,21,34,21.3
	c0.4,0,0.9,0,1.3,0c14.3,0,31.2-8.6,44.2-22.4c11.4-12.2,17.6-26,16.8-37.9C941.6,539.8,914.6,522.1,885.1,522.1L885.1,522.1z"/>
</svg>
