<?xml version="1.0" encoding="utf-8"?>
<!-- Generator: Adobe Illustrator 21.0.0, SVG Export Plug-In . SVG Version: 6.00 Build 0)  -->
<svg version="1.1" id="Capa_1" xmlns="http://www.w3.org/2000/svg" xmlns:xlink="http://www.w3.org/1999/xlink" x="0px" y="0px"
	 viewBox="0 0 512 512" style="enable-background:new 0 0 512 512;" xml:space="preserve">
<style type="text/css">
	.st0{fill:#FFFFFF;}
</style>
<path class="st0" d="M247,1c6.3,0,12.7,0,19,0c2.4,0.4,4.9,0.8,7.3,1.1c9.6,1.1,19.3,1.6,28.7,3.4c49.3,9.4,92.4,31.3,128.9,65.9
	c45.5,43.1,72.8,95.7,80,158.3c0.7,6.1,1.4,12.2,2.1,18.3c0,6,0,12,0,18c-0.4,2.4-0.9,4.9-1.1,7.3c-1.1,9.6-1.6,19.3-3.5,28.7
	c-9.4,49.3-31.3,92.4-65.9,128.9c-43.1,45.5-95.7,72.8-158.3,80c-6.1,0.7-12.2,1.4-18.3,2.1c-6,0-12,0-18,0
	c-0.9-0.3-1.9-0.7-2.8-0.8c-11.1-1.2-22.3-1.7-33.2-3.8C148.7,496,96.9,464.2,56.8,413.9c-30.2-38-48.4-81.2-53.7-129.6
	C2.4,278.2,1.7,272.1,1,266c0-6.3,0-12.7,0-19c0.4-2.1,0.9-4.2,1.1-6.3c1.2-9.6,1.6-19.3,3.4-28.7c9.4-49.1,31.2-92.2,65.5-128.5
	C114.3,37.8,167,10.4,229.8,3.1C235.5,2.4,241.3,1.7,247,1z M257.1,32.7c-126.3,0-224.4,97.8-224.5,224
	c-0.1,126.3,97.7,224.5,223.9,224.6c126.5,0.1,224.7-97.9,224.7-224.3C481.3,130.7,383.4,32.7,257.1,32.7z"/>
<path class="st0" d="M261,187.2c-8.1,8-16.1,15.9-24.4,24.2c0.4,0.1-0.2,0.1-0.5-0.2c-25.7-25.5-67.8-15.3-85.6,12.9
	c-12.5,19.9-13.8,40.9-2.5,61.6c11.2,20.6,29.2,31.4,53,31.6c25,0.2,43.4-11.9,50.6-32.9c0.7-2.2,1.2-4.4,2-7.4
	c-18.9,0-37.3,0-55.9,0c0-10.8,0-20.8,0-31.3c30.2,0,60.2,0,91,0c0,5.7,0.2,11.5,0,17.3c-0.8,21.2-5.5,41.2-18.9,58.3
	c-15,19.2-35.3,28.7-59.3,30.7c-29.6,2.5-55.5-6.1-76.4-27.1c-26.8-27-35.3-59.8-24.1-96c11.2-36.2,36.7-58.2,74.1-65.7
	c29.4-5.9,54.5,3.3,76.2,23.1C260.6,186.5,260.8,187,261,187.2z"/>
<path class="st0" d="M376.8,213.8c0,10.5,0,20.7,0,31.3c10.5,0,20.8,0,31.5,0c0,10.7,0,20.9,0,31.5c-10.3,0-20.6,0-31.3,0
	c0,10.7,0,21,0,31.7c-10.7,0-20.9,0-31.5,0c0-10.3,0-20.6,0-31.3c-10.7,0-21,0-31.7,0c0-10.7,0-20.9,0-31.5c10.3,0,20.6,0,31.3,0
	c0-10.7,0-21,0-31.7C355.7,213.8,365.9,213.8,376.8,213.8z"/>
</svg>
